Coordinates
version=1
nRows=24
nColumns=19
inDegrees=yes

Units are S.I. units (second, meters, Newtons, ...)
If the header above contains a line with 'inDegrees', this indicates whether rotational values are in degrees (yes) or radians (no).

endheader
time	pelvis_tilt	pelvis_list	pelvis_rotation	pelvis_tx	pelvis_ty	pelvis_tz	hip_flexion_r	hip_adduction_r	hip_rotation_r	knee_angle_r	knee_angle_r_beta	ankle_angle_r	hip_flexion_l	hip_adduction_l	hip_rotation_l	knee_angle_l	knee_angle_l_beta	ankle_angle_l
     16.92000000	     -7.22136145	      4.10944930	      8.98681008	      2.15453143	      1.05983798	      1.02185582	     -8.01854326	     -7.10937485	    -14.02113312	     54.93056166	      0.95871916	    -21.08781524	     29.01019713	      9.01709674	     -2.34100605	     16.11330181	      0.28123017	      5.43934754
     16.92666667	     -6.53479184	      4.14979548	      9.23696447	      2.15321674	      1.05520947	      1.02208454	     -7.68025366	     -7.45058515	    -14.31886581	     57.74207340	      1.00778930	    -20.92454946	     29.35614090	      8.71634031	     -3.11430932	     19.81884386	      0.34590408	      5.65399937
     16.93333333	     -5.81356954	      4.14173329	      9.43161777	      2.15176111	      1.05023832	      1.02247730	     -7.28246880	     -7.73060084	    -14.48757355	     60.53447065	      1.05652582	    -20.60630515	     29.69248484	      8.29232699	     -3.75371308	     23.74590669	      0.41444426	      6.04688668
     16.94000000	     -5.15137625	      4.12363297	      9.56653176	      2.15021969	      1.04493179	      1.02301622	     -6.72145447	     -8.02704798	    -14.55682042	     63.33156048	      1.10534425	    -20.09195215	     30.03679757	      7.82846353	     -4.20039618	     27.71145316	      0.48365610	      6.62926208
     16.94666667	     -4.55752922	      4.10753186	      9.65775314	      2.14854073	      1.03939293	      1.02367119	     -5.98481288	     -8.33208172	    -14.51304682	     66.11591666	      1.15394043	    -19.39509244	     30.34767905	      7.38491777	     -4.41713068	     31.59036338	      0.55135585	      7.48731541
     16.95333333	     -3.57639520	      4.45553500	      9.72510508	      2.14693998	      1.03443899	      1.02435014	     -5.72259409	     -9.04851898	    -14.61887141	     68.78264499	      1.20048362	    -18.63080289	     29.93210064	      7.29483287	     -4.49915598	     35.08005443	      0.61226245	      8.65055141
     16.96000000	     -3.58164076	      4.10487107	      9.70316545	      2.14483718	      1.02823460	      1.02520716	     -3.96273834	     -8.96251663	    -14.06063767	     71.56681399	      1.24907654	    -17.54762669	     30.69170901	      6.67150428	     -4.26882356	     38.66686875	      0.67486417	     10.11028522
     16.96666667	     -3.31089520	      4.16795629	      9.65244736	      2.14280581	      1.02277328	      1.02604425	     -2.55139826	     -9.37720350	    -13.67727637	     74.22764578	      1.29551681	    -16.46805896	     30.75952860	      6.47173338	     -4.05187700	     41.69064451	      0.72763901	     11.81253133
     16.97333333	     -2.74326636	      4.43329782	      9.62292792	      2.14081179	      1.01815429	      1.02687846	     -1.47270235	     -9.95589840	    -13.35691219	     76.68860157	      1.33846860	    -15.35228900	     30.17683275	      6.49399271	     -3.77538773	     44.22545149	      0.77187974	     13.79437890
     16.98000000	     -3.12640581	      4.32521124	      9.41149061	      2.13853261	      1.01279288	      1.02786598	      0.99491581	    -10.20250991	    -12.58021010	     79.21939486	      1.38263927	    -14.30656971	     30.50962209	      6.22230567	     -3.55856914	     46.50395906	      0.81164720	     15.76469555
     16.98666667	     -3.23057294	      4.38926833	      9.22823603	      2.13643579	      1.00843063	      1.02879821	      3.11852236	    -10.58667101	    -11.92233753	     81.47406810	      1.42199074	    -13.30100401	     30.18829494	      6.12748454	     -3.33476066	     48.23991414	      0.84194533	     17.85526255
     16.99333333	     -3.44015682	      4.43256788	      8.96755701	      2.13436718	      1.00461328	      1.02980373	      5.45373369	    -10.91722283	    -11.17042405	     83.53210441	      1.45791025	    -12.39539752	     29.71565327	      5.99608657	     -3.18805584	     49.53195916	      0.86449577	     19.92986917
     17.00000000	     -3.74043960	      4.42118460	      8.64449998	      2.13240205	      1.00137313	      1.03079553	      7.95416561	    -11.14746633	    -10.36732024	     85.34931946	      1.48962664	    -11.55288963	     29.09362979	      5.80344558	     -3.09369387	     50.39938890	      0.87963528	     21.90391695
     17.00666667	     -3.93881059	      4.44074539	      8.17705305	      2.13066041	      0.99903083	      1.03190749	     10.38042175	    -11.34060878	     -9.48763067	     86.87725505	      1.51629415	    -10.81235744	     28.09117061	      5.55463180	     -3.17766909	     50.81768392	      0.88693590	     23.72978683
     17.01333333	     -3.93949687	      4.32743709	      7.90574381	      2.12922511	      0.99771195	      1.03260773	     12.45040903	    -11.39432752	     -8.98777385	     87.98311201	      1.53559499	    -10.12008023	     26.64964409	      5.29276652	     -2.96031711	     50.83139538	      0.88717521	     25.51700457
     17.02000000	     -4.30532379	      4.23290938	      7.11405574	      2.12789278	      0.99652999	      1.03389035	     15.13615251	    -11.29506059	     -7.90630674	     88.95869885	      1.55262219	     -9.41881036	     25.44111041	      4.81710912	     -3.39472687	     50.56074834	      0.88245153	     26.86318114
     17.02666667	     -4.67177663	      3.98423594	      6.43798326	      2.12683049	      0.99612516	      1.03476505	     17.69279847	    -11.05334478	     -7.14684449	     89.53573851	      1.56269344	     -8.85079974	     24.07783256	      4.31317374	     -3.60200062	     49.98566241	      0.87241439	     27.91082927
     17.03333333	     -4.78042917	      3.71026606	      5.76968194	      2.12613345	      0.99669553	      1.03550360	     19.80888870	    -10.74576402	     -6.60241087	     89.72731335	      1.56603705	     -8.13766645	     22.26599176	      3.78869510	     -3.82331612	     49.11425147	      0.85720540	     28.78324476
     17.04000000	     -4.82753396	      3.40305738	      5.02527300	      2.12575981	      0.99797025	      1.03616857	     21.74187695	    -10.36671364	     -6.15689262	     89.58238751	      1.56350761	     -7.38677440	     20.25078978	      3.23579626	     -4.14210893	     47.98588844	      0.83751175	     29.36014039
     17.04666667	     -5.07634448	      2.95286248	      4.63238943	      2.12566089	      0.99966411	      1.03623440	     23.64482517	    -10.01855593	     -6.27252864	     89.06788174	      1.55452779	     -6.71202423	     18.39141444	      2.74887834	     -4.02638638	     46.68998804	      0.81489402	     29.47663891
     17.05333333	     -4.53479115	      2.71747341	      3.38132600	      2.12594929	      1.00277795	      1.03733150	     24.75305899	     -9.39866772	     -5.60272208	     88.28308438	      1.54083050	     -5.74523775	     15.42889232	      2.15337251	     -4.95879383	     45.01223882	      0.78561177	     29.40522074
     17.06000000	     -4.03585993	      2.32545775	      2.64467921	      2.12657478	      1.00638127	      1.03762118	     25.56164878	     -8.92722031	     -5.70557742	     87.12181685	      1.52056255	     -4.83780948	     12.48002402	      1.68756106	     -5.25364017	     43.19625050	      0.75391680	     28.90040678
     17.06666667	     -3.63359087	      1.87395748	      2.00081721	      2.12732570	      1.01024877	      1.03778499	     26.31675002	     -8.42749720	     -6.01139802	     85.69707457	      1.49569611	     -3.92177005	      9.61681655	      1.24080560	     -5.46481073	     41.29301680	      0.72069910	     28.00779245
     17.07333333	     -3.29707948	      1.38673702	      1.35310864	      2.12830663	      1.01433235	      1.03794767	     27.00099051	     -7.87598310	     -6.41493202	     84.02861987	      1.46657608	     -2.98449879	      6.79814022	      0.79699132	     -5.72893164	     39.30647655	      0.68602743	     26.71515844
